<?xml version="1.0" encoding="utf-8"?>
<!-- Uploaded to: SVG Repo, www.svgrepo.com, Generator: SVG Repo Mixer Tools -->
<!DOCTYPE svg PUBLIC "-//W3C//DTD SVG 1.1//EN" "http://www.w3.org/Graphics/SVG/1.1/DTD/svg11.dtd">
<svg height="30px" width="30px" fill="#e1e1e1" viewBox="0 0 1000 1000" version="1.1" xmlns="http://www.w3.org/2000/svg" xmlns:xlink="http://www.w3.org/1999/xlink"  enable-background="new 0 0 1000 1000" xml:space="preserve">

<g>

<g transform="translate(0.000000,511.000000) scale(0.100000,-0.100000)">

<path d="M4733.2,4998.7c-1205.6-132.4-2227.4-954.6-2585.1-2085.1c-112.7-349.8-140.3-533.6-140.3-907.2c0-442.7,65.2-764.9,235.2-1170l69.2-162.1V267.2c0-446.7-11.9-498.1-124.5-581.1c-53.4-39.5-88.9-41.5-592.9-51.4l-537.6-9.9l-102.8-53.4C804.1-507.6,727-584.6,649.9-725c-59.3-110.7-67.2-142.3-67.2-272.7c0-130.4,7.9-162.1,67.2-272.8c77.1-140.3,156.1-217.4,304.4-294.5l102.8-55.3l537.6-9.9c504-9.9,539.6-11.9,592.9-51.4c85-61.3,124.5-158.1,124.5-298.4v-124.5h-527.7c-616.6,0-723.3-15.8-974.4-142.3c-332-166-608.7-519.8-681.9-875.5c-37.5-177.9-37.5-573.2,0-749.1c81-383.4,371.6-719.4,741.2-859.7c181.8-69.2,466.4-71.1,658.1-3.9c172,57.3,403.2,211.5,507.9,337.9c100.8,118.6,203.6,314.3,237.2,450.6l27.7,102.8h172h171.9l13.8-73.1c21.8-120.6,134.4-341.9,233.2-464.5c114.6-136.3,341.9-292.5,521.8-353.8c191.7-67.2,476.3-65.2,658.1,3.9c369.6,140.3,660.1,476.3,741.2,859.7c37.6,175.9,37.6,571.2,0,747.1c-77.1,361.7-347.8,709.5-681.9,877.5c-251,126.5-359.7,142.3-970.4,142.3h-525.7l-11.8,156.1c-17.8,260.9-138.3,444.7-375.5,571.2l-102.8,53.4l-537.6,9.9c-504,9.9-539.6,11.8-592.9,51.4c-164,120.5-164,409.1,0,529.7c53.4,39.5,88.9,41.5,592.9,51.4l537.6,9.9l102.8,55.3c148.2,77.1,227.3,154.2,302.4,292.5c55.3,106.7,67.2,148.2,75.1,302.4l7.9,179.8l260.9-256.9c466.4-464.5,966.4-731.3,1593-851.8c258.9-49.4,768.8-49.4,1027.7,0c626.5,120.6,1126.6,387.4,1593,851.8l260.9,256.9l7.9-177.9c5.9-156.1,15.8-193.7,75.1-302.4c75.1-140.3,152.2-217.4,302.4-296.5l102.8-53.3l537.6-9.9c504-9.9,539.6-11.9,592.9-51.4c164-120.6,164-409.1,0-529.7c-53.4-39.5-88.9-41.5-592.9-51.4l-537.6-9.9l-102.8-53.4c-150.2-79.1-227.3-156.1-302.4-296.5c-55.3-100.8-67.2-152.2-75.1-276.7l-9.9-154.1H6840c-610.7,0-719.4-15.8-970.4-142.3c-332-166-608.7-519.8-681.9-875.5c-37.5-177.9-37.5-573.2,0-749.1c81-383.4,371.6-719.4,741.2-859.7c181.8-69.2,466.4-71.1,658.1-3.9c172,57.3,403.2,211.5,507.9,337.9c100.8,118.6,203.6,314.3,237.2,450.6l27.7,102.8h171.9h172l13.8-73.1c21.7-120.6,134.4-341.9,233.2-464.5c114.6-136.3,341.9-292.5,521.8-353.8c191.7-67.2,476.3-65.2,658.1,3.9c369.6,140.3,660.1,476.3,741.2,859.7c37.6,175.9,37.6,571.2,0,747.1c-77.1,363.6-349.8,713.5-683.8,877.5c-255,126.5-359.7,142.3-970.4,142.3h-529.7v124.5c0,140.3,39.5,237.2,124.5,298.4c53.4,39.5,88.9,41.5,592.9,51.4l537.6,9.9l102.8,55.3c150.2,77.1,227.3,154.2,304.4,294.5c57.3,110.7,65.2,142.3,65.2,272.8c0,130.4-7.9,162.1-65.2,272.7c-77.1,140.3-154.2,217.4-304.4,296.5l-102.8,53.4l-537.6,9.9c-504,9.9-539.6,11.8-592.9,51.4c-112.7,83-124.5,134.4-124.5,585v407.1l69.2,162.1c170,395.3,235.2,721.4,235.2,1166.1c0,369.6-31.6,577.1-138.3,905.2c-154.2,474.3-371.6,824.2-749.1,1199.7c-456.5,458.5-940.8,721.4-1549.5,842C5369.6,4988.8,4895.3,5016.5,4733.2,4998.7z M4387.3,4621.2c0-9.9-21.7-31.6-47.4-49.4c-33.6-23.7-61.3-29.6-102.8-17.8c-57.3,15.8-55.3,15.8,41.5,47.4c55.3,17.8,100.8,31.6,104.7,31.6C4385.3,4635,4387.3,4629.1,4387.3,4621.2z M5879.5,4550.1c98.8-31.6,249-92.9,336-136.4c156.1-79.1,480.3-290.5,523.7-339.9c15.8-21.8-9.9-51.4-122.5-134.4c-79.1-59.3-185.8-132.4-237.2-162.1l-90.9-53.4l-61.3,114.6c-98.8,181.8-302.4,456.5-474.3,632.5C5577.1,4654.8,5573.2,4652.8,5879.5,4550.1z M4841.9,3992.7v-583h-77.1c-154.2,0-664.1,114.6-758.9,171.9c-7.9,4-2,31.6,11.9,57.3c21.7,43.5,41.5,51.4,134.4,55.3c132.4,5.9,203.6,43.5,308.3,156.1c116.6,126.5,152.2,266.8,96.9,397.3c-27.7,65.2-25.7,67.2,43.5,134.4c73.1,67.2,225.3,193.7,235.2,193.7C4839.9,4575.8,4841.9,4312.9,4841.9,3992.7z M5450.6,4328.7c90.9-87,211.5-213.4,264.8-282.6c128.5-160.1,298.4-442.7,278.7-460.5c-55.3-51.4-592.9-175.9-758.9-175.9h-77.1v585v583l65.2-45.5C5256.9,4508.6,5361.7,4415.7,5450.6,4328.7z M3784.5,4366.3c-96.8-144.3-104.7-326.1-19.8-448.6c23.7-33.6,21.7-49.4-11.9-116.6l-39.5-77.1l-92.9,53.4c-51.4,29.6-158.1,102.8-239.1,164L3235.1,4050l67.2,55.3c110.7,94.9,482.2,326.1,525.7,332C3830,4437.4,3810.2,4405.8,3784.5,4366.3z M4225.2,4227.9c29.6-19.8,43.5-49.4,43.5-96.9c0-85-43.5-128.5-128.5-128.5s-128.5,43.5-128.5,128.5c0,73.1,55.3,128.5,128.5,128.5C4162,4259.5,4201.5,4245.7,4225.2,4227.9z M3136.2,3733.8c61.3-49.4,185.8-134.4,276.7-189.7c90.9-55.3,164-106.7,164-112.6c0-5.9-17.8-57.3-39.5-112.7c-88.9-239.2-187.8-743.1-201.6-1035.6l-5.9-108.7l-509.9-5.9l-511.9-4l13.8,102.8c71.2,575.1,241.1,1002,569.2,1423c57.3,73.1,110.7,134.4,118.6,134.4C3019.6,3824.7,3077,3783.2,3136.2,3733.8z M7045.6,3771.4c92.9-104.7,282.6-393.3,361.7-549.4c136.4-274.7,225.3-585,270.8-954.6l13.8-102.8l-511.9,4l-509.9,5.9l-5.9,65.2c-5.9,57.3,5.9,77.1,75.1,136.4c104.7,90.9,162.1,205.6,162.1,324.1c0,179.8-134.4,365.6-304.4,417c-67.2,19.8-77.1,31.6-116.6,152.2c-23.7,71.1-47.4,140.3-51.4,152.2c-4,11.9,67.2,65.2,156.1,122.5c90.9,55.4,213.4,140.3,272.7,189.7c59.3,47.4,116.6,88.9,124.5,88.9C6990.2,3824.7,7019.9,3801,7045.6,3771.4z M4081,3235.8c209.5-71.1,424.9-116.6,620.6-134.4l140.3-13.8V2627v-462.5h-602.8h-604.8l13.8,154.2c31.6,381.5,179.8,1006,233.2,984.3C3893.2,3297,3984.1,3267.4,4081,3235.8z M6183.9,3168.5l37.5-110.7l-57.3-55.3c-207.5-197.6-164-507.9,92.9-672c81-53.4,106.7-79.1,106.7-116.6v-49.4h-602.8h-602.8V2625v460.5l203.6,23.7c207.5,23.7,482.2,90.9,656.2,158.1c55.3,19.8,104.7,31.6,112.7,25.7C6138.4,3285.2,6162.1,3229.8,6183.9,3168.5z M6561.4,2797c85-85,25.7-217.4-96.9-217.4c-39.5,0-83,9.9-96.8,23.7c-33.6,33.6-29.6,166,7.9,201.6C6419.1,2848.4,6513.9,2844.4,6561.4,2797z M3328,1816.7c5.9-17.8,11.8-71.2,11.8-120.6c0-219.4,106.7-757,201.6-1008c39.5-106.7,39.5-114.6,5.9-134.4c-130.4-77.1-349.8-225.3-426.9-288.5c-51.4-43.5-98.8-77.1-104.7-77.1c-43.5,0-312.3,383.4-423,602.8c-136.4,274.7-225.3,585-270.8,954.6l-13.8,102.8h504C3252.9,1848.3,3318.1,1844.4,3328,1816.7z M4841.9,1383.9c0-254.9-5.9-464.5-11.8-464.5c-5.9,0-59.3,43.5-118.6,96.9c-175.9,162.1-353.8,175.9-535.6,43.5c-85-61.3-152.2-156.1-173.9-245.1c-13.8-55.3-61.3-92.9-116.6-92.9c-53.4,0-189.7,506-217.4,810.3c-7.9,71.2-17.8,170-23.7,223.3l-11.9,92.9h604.8h604.8V1383.9z M6351.9,1715.9c-29.6-336-116.6-760.9-193.7-942.7l-27.7-69.2l-104.8,39.5c-181.8,69.2-454.6,136.4-664.1,160.1l-203.6,23.7v460.5v460.5h602.8h604.8L6351.9,1715.9z M7678,1745.5c-45.4-369.6-134.4-679.9-270.8-954.6c-92.9-183.8-284.6-470.4-369.6-551.4l-59.3-57.3l-94.9,79.1c-79.1,67.2-298.4,215.4-430.8,292.5c-33.6,19.8-33.6,27.7,5.9,134.4c100.8,266.8,201.6,788.6,201.6,1039.6v120.6H7176h515.8L7678,1745.5z M4513.8,808.7c45.5-45.4,41.5-179.9-5.9-205.6c-104.8-55.3-219.4,4-219.4,112.7C4288.5,818.6,4442.6,881.9,4513.8,808.7z M5496.1,571.6c168-31.6,470.4-118.6,498-144.3c19.8-17.8-150.2-300.4-278.7-460.5c-106.7-134.4-389.4-413.1-492.1-486.2l-65.2-45.5v583v585h87C5292.5,603.2,5405.2,589.3,5496.1,571.6z M4841.9-1.6v-563.3l-63.3,45.5c-104.7,73.1-387.4,351.8-494.1,486.2c-55.3,69.2-144.3,197.6-197.6,286.6c-92.9,156.1-94.9,162.1-55.3,179.9c31.6,13.8,51.4,7.9,94.9-33.6c71.2-69.2,215.4-132.4,300.4-132.4c37.6,0,104.7,17.8,150.2,37.6c87,39.5,217.4,162.1,235.2,221.4c7.9,21.7,15.8,37.5,21.8,37.5C4837.9,563.7,4841.9,308.7,4841.9-1.6z M3798.3,134.8c128.5-219.4,302.4-446.7,470.4-614.6c126.5-126.5,138.3-142.3,87-130.4c-146.3,35.6-426.9,138.4-571.2,209.5c-156.1,79.1-480.3,290.5-523.8,341.9c-17.8,19.8,4,45.4,94.9,114.6c88.9,69.2,336,231.2,351.8,231.2C3709.4,287,3750.9,217.8,3798.3,134.8z M6616.7,75.5c110.7-85,138.3-114.6,120.6-136.4c-41.5-49.4-365.6-260.9-521.8-340c-144.3-71.1-424.9-173.9-571.2-209.5c-51.4-11.8-41.5,2,87,130.4c168,168,343.9,397.2,470.4,614.6l88.9,152.2l90.9-51.4C6430.9,205.9,6537.6,134.8,6616.7,75.5z M3820.1-2450.3c340-88.9,587-334,675.9-672c37.6-150.2,39.5-610.7,2-753c-65.2-245.1-249-462.5-462.5-543.5c-63.3-23.7-177.9-47.4-264.8-53.4c-468.4-29.6-826.1,316.2-826.1,796.5v148.2h-472.4h-470.4l-11.8-181.9c-11.9-211.5-51.4-332-152.2-466.4c-264.8-349.8-826.1-401.2-1152.2-102.8c-116.6,106.7-201.6,249-243.1,403.2c-37.6,140.3-35.6,602.8,2,749c87,336,332,585,664.1,674C1268.6-2408.8,3656-2406.9,3820.1-2450.3z M8879.7-2450.3c340-88.9,587-334,675.9-672c37.6-150.2,39.5-610.7,2-753c-65.2-245.1-249-462.5-462.5-543.5c-63.3-23.7-177.9-47.4-264.8-53.4c-468.4-29.6-826.1,316.2-826.1,798.5v146.3h-472.4h-470.4l-9.9-181.9c-11.9-203.6-49.4-318.2-148.2-458.5c-203.6-288.6-642.3-393.3-978.3-231.2c-207.5,96.8-359.7,288.6-423,525.7c-37.5,138.3-35.6,600.8,2,747.1c86.9,336,332,585,664.1,674C6328.1-2408.8,8715.6-2406.9,8879.7-2450.3z"/>

<path d="M1837.8-2736.9V-2895h237.2h237.2v158.1v158.1h-237.2h-237.2V-2736.9z"/>

<path d="M2628.3-2736.9V-2895h237.2h237.2v158.1v158.1h-237.2h-237.2V-2736.9z"/>

<path d="M1047.2-3211.3v-158.1H889.1H731v-158.1v-158.1h158.1h158.1v-158.1v-158.1h158.1h158.1v158.1v158.1h158.1h158.1v158.1v158.1h-158.1h-158.1v158.1v158.1h-158.1h-158.1V-3211.3z M1363.4-3527.5v-158.1h-158.1h-158.1v158.1v158.1h158.1h158.1V-3527.5z"/>

<path d="M3662-3076.9c-108.7-53.3-98.8-225.3,15.8-272.7c175.9-73.1,298.4,195.7,124.5,274.7C3743-3049.2,3719.3-3049.2,3662-3076.9z"/>

<path d="M3345.7-3393.1c-108.7-53.3-98.8-225.3,15.8-272.7c175.9-73.1,298.4,195.7,124.5,274.7C3426.8-3365.4,3403.1-3365.4,3345.7-3393.1z"/>

<path d="M3974.3-3395.1c-106.7-53.4-94.9-225.3,19.8-270.8c175.9-73.1,298.4,195.7,124.5,274.7C4057.2-3363.5,4033.5-3363.5,3974.3-3395.1z"/>

<path d="M3658-3711.3c-106.7-53.3-94.9-225.3,19.8-270.8c175.9-73.1,298.4,195.7,124.5,274.7C3741-3679.7,3717.3-3679.7,3658-3711.3z"/>

<path d="M6897.3-2736.9V-2895h237.2h237.2v158.1v158.1h-237.2h-237.2V-2736.9z"/>

<path d="M7687.9-2736.9V-2895h237.2h237.2v158.1v158.1h-237.2h-237.2V-2736.9z"/>

<path d="M6106.8-3211.3v-158.1h-158.1h-158.1v-158.1v-158.1h158.1h158.1v-158.1v-158.1h158.1H6423v158.1v158.1h158.1h158.1v158.1v158.1h-158.1H6423v158.1v158.1h-158.1h-158.1V-3211.3z M6423-3527.5v-158.1h-158.1h-158.1v158.1v158.1h158.1H6423V-3527.5z"/>

<path d="M8717.6-3078.9c-106.7-53.3-94.9-225.3,19.8-270.7c175.9-73.1,298.4,195.7,124.5,274.7C8800.6-3047.2,8776.9-3047.2,8717.6-3078.9z"/>

<path d="M8401.4-3395.1c-106.7-53.4-94.9-225.3,19.8-270.8c175.9-73.1,298.4,195.7,124.5,274.7C8484.4-3363.5,8460.7-3363.5,8401.4-3395.1z"/>

<path d="M9037.8-3393.1c-106.7-51.4-102.8-215.4,5.9-266.8c130.4-63.2,260.9,59.3,205.5,193.7C9213.7-3381.2,9126.7-3349.6,9037.8-3393.1z"/>

<path d="M8721.6-3709.3c-106.7-51.4-102.8-215.4,5.9-266.8c130.5-63.2,260.9,59.3,205.6,193.7C8897.5-3697.5,8810.5-3665.8,8721.6-3709.3z"/>

</g>

</g>
</svg>